<?xml version="1.0" encoding="utf-8"?>
<!-- Generator: Adobe Illustrator 15.0.2, SVG Export Plug-In . SVG Version: 6.00 Build 0)  -->
<!DOCTYPE svg PUBLIC "-//W3C//DTD SVG 1.1//EN" "http://www.w3.org/Graphics/SVG/1.1/DTD/svg11.dtd">
<svg version="1.1" id="Layer_1" xmlns="http://www.w3.org/2000/svg" xmlns:xlink="http://www.w3.org/1999/xlink" x="0px" y="0px"
	 width="737px" height="199px" viewBox="29.5 24.5 737 199" enable-background="new 29.5 24.5 737 199" xml:space="preserve">
<g>
	<path fill="#3F3B36" d="M128.279,65.373c1.467,0.918,3.18,1.375,5.098,1.375c3.896,0,7.411-1.831,9.48-3.558
		c2.386-2.104,2.955-4.346,3.191-7.974c0.312-6.453-4.383-15.209-13.626-18.735c-2.363-0.903-5.501-1.402-8.805-1.402
		c-1.468,0-2.887,0.079-4.155,0.279c-19.56,3.123-27.305,26.728-27.305,26.728s-4.31-1.087-10.013-1.087
		c-4.681,0-9.182,0.62-12.942,1.814c-4.721,1.405-10.517,5.219-15.919,10.396c-13.95,14.539-11.5,34.798-9.675,43.383
		c4.338,15.829,22.944,25,31.168,30.633c8.283,5.667,24.523,11.491,24.523,28.087c0,12.765-5.399,23.039-16.341,23.039
		c-15.874,0-17.744-8.562-17.744-8.562s13.147-6.084,7.52-22.634c-1.864-5.002-7.317-7.896-14.976-7.896
		c-1.476,0-2.963,0.016-4.476,0.31c-8.971,1.667-11.874,9.909-12.452,15.405c-0.966,9.385,2.2,19.006,8.171,25.197
		c1.814,1.887,11.818,11.391,29.024,12.646c13.553,0.964,26.765-4.782,36.046-15.986c3.873-4.664,5.878-9.762,7.199-17.677
		c0.659-4.136,1.35-13.892-1.946-22.419c-4.379-11.262-18.707-19.937-26.923-24.402c-21.2-11.427-26.83-12.219-26.83-38.59
		c0-9.855,5.447-19.355,16.214-19.355c13.911,0,15.798,9.771,15.798,9.771s-14.166,5.89-11.243,19.051
		c1.256,5.571,5.239,9.504,12.39,11.92c6.005,2.054,11.731,0.656,15.927-3.766c3.918-4.106,6.044-10.246,5.695-16.454
		c-0.29-6.002-3.749-11.198-6.208-16.243c-2.541-5.317-3.859-10.328-3.859-16.082c0-7.99,4.301-16.621,11.314-16.621
		c4.329,0,6.016,2.118,6.016,2.118l-0.431,0.33c-2.349,1.816-3.614,5.05-3.374,8.636C124.104,60.711,125.793,63.988,128.279,65.373
		 M755.342,177.08c0-8.709-1.223-17.778-7.688-25.936c-5.751-7.144-20.798-16.617-24.126-19.176
		c-5.465-4.168-19.853-11.744-23.366-21.873c-2.727-7.889-2.338-26.289,6.546-33.061c2.35-1.794,5.295-2.76,8.394-2.76
		c9.406,0,11.756,10.539,11.756,10.539s-10.838,5.233-10.415,15.17c0.197,5.854,3.401,10.652,8.416,13.551
		c2.05,1.214,4.698,1.839,7.537,1.839h0.033c4.682,0,9.802-1.758,12.968-4.419c5.555-4.687,5.812-14.26,4.394-20.994l-0.281-1.369
		c-1.166-5.701-3.256-11.111-6.974-15.736c-3.978-4.979-9.959-11.719-28.098-11.719c-21.834,0-31.275,14-35.101,22.225
		c-5.108,11.103-5.414,28.954-0.541,37.398c5.64,9.902,24.531,22.278,35.449,30.114c5.373,3.875,17.473,11.745,18.33,23.208
		c0.45,6.455,1.137,14.499-4.039,20.64c-2.181,2.619-6.709,4.619-12.286,4.619c-14.026,0-17.947-10.76-17.947-10.76
		s9.6-4.691,8.102-16.91c-0.767-6.382-5.278-11.023-10.935-12.291c-1.312-0.326-2.93-0.49-4.612-0.49
		c-4.45,0-8.259,1.008-10.235,2.722c-5.335,4.726-7.154,11.019-5.622,19.856c0.744,4.703,3.622,13.311,11.801,20.897
		c7.173,6.653,19.515,10.358,26.668,10.358c21.293,0,27.951-7.227,32.812-12.662C750.307,195.534,755.342,186.521,755.342,177.08
		 M428.122,135.733l0.04-3.238c0.271-9.102,0-24.167,0-29.764c0-5.689,0.326-19.321,0.326-19.423c0,0,12.844-1.081,15.559-3.76
		c3.96-3.794,1.003-19.265-6.253-18.229c-6.185,0.918-13.266,5.027-13.266,5.027s-10.545-4.808-12.229-5.087
		c-1.317-0.191-2.513,1.184-2.737,1.586c-1.481,2.129-2.49,3.571-2.49,5.214v65.441c0,8.991-0.383,17.891-3.833,22.251
		c-2.634,3.408-5.742,4.812-13.299,4.812c-11.159,0-13.037-17.485-13.105-25.743v-0.191c-0.054-10.781,0.397-57.113,0.397-57.615
		c0-0.064,0.037-4.745,0.183-6.449c0.082-2.93-3.245-9.244-5.825-9.323c-2.676-0.084-8.058,5.008-11.728,7.162
		c0,0-8.346-6.697-13.286-6.697c-4.926,0-7.869,2.955-9.128,5.459c-2.803,5.633-0.299,10.97,0.864,12.904
		c2.366,1.432,16.184,5,16.184,5v40.964c-0.025,10.454-0.09,20.369,3.594,28.693c0.856,1.894,9.897,18.512,33.244,18.512
		c13.023,0,22.707-5.223,29.123-11.086C426.95,156.17,427.869,143.642,428.122,135.733 M273.736,177.565
		c20.2-2.142,43.2-4.547,51.354-5.104c1.806-0.157,3.687-1.06,3.969-2.489c1.256-8.9,3.008-27.637,0-29.045
		c-0.254-0.073-0.623-0.19-1.392-0.19c-3.658,0-11.089,2.129-11.621,2.461c-0.349,0.444-4.163,9.198-6.655,14.174l-0.073,0.141
		l-0.163,0.045c-0.138,0-11.39,2.513-16.97,3.347c-2.428,0.332-4.225-0.112-5.371-1.369c-1.414-1.571-1.211-3.751-1.211-3.836
		V82.884c0,0,12.032-3.597,13.032-4.138c1.042-0.529,1.907-13.517,0.485-15.192c-1.102-1.229-3.152-2.096-5.558-2.096
		c-2.301,0-10.582,3.245-17.442,5.29c-11.965-4.248-15.606-5.208-17.846-5.208c-1.96,0-6.985,0.18-7.875,6.878
		c-0.963,7.362,1.346,10.644,3.428,11.677c2.138,1.006,11.475,2.997,11.475,2.997v9.371c0,13.479-0.031,29.911,0,33.858
		c0.236,11.355-0.406,21.67-0.91,28.554l-0.236,4.816c0,0-10.528,6.201-10.979,7.436c-0.457,1.217,0.304,8.669,1.836,12.387
		C260.329,178.938,266.829,178.274,273.736,177.565 M629.798,170.647c1.368-2.776,1.278-16.91,1.223-25.021
		c-0.057-2.067-0.057-3.876-0.057-5.16c0.057-2.935-0.022-35.001-1.864-49.388c-1.661-12.83-7.576-18.612-18.414-16.288
		c-11.848,2.534-11.981,22.952-11.981,23.811v54.878c0,6.13,1.081,19.931,8.398,23.175c2.146,0.945,4.89,1.465,7.739,1.465
		C620.352,178.117,627.156,176.167,629.798,170.647 M626.762,62.753c4.89,1.519,10.354,5.278,15.097,10.156
		c9.34,9.596,11.216,22.94,11.216,41.296c0,12.16-0.659,47.327-1.876,52.735c-1.87,8.427-6.376,20.108-24.16,23.727
		c-3.521,0.743-7.036,1.081-10.506,1.081c-12.481,0-22.059-4.658-26.622-7.437c-5.633-3.412-10.263-10.195-11.266-18.34
		c-2.152-17.316-1.521-40.709-0.834-67.934c0.248-10.294,3.694-29.968,25.8-35.801c2.591-0.685,6.433-1.039,10.297-1.039
		C618.898,61.2,623.782,61.805,626.762,62.753 M204.483,137.789c0.771-19.71,0.476-49.67-2.788-56.41
		c-3.265-6.703-8.996-7.104-14.134-7.104c-9.342,0-14.79,7.331-15.524,25.072c-0.302,6.921-0.273,16.01-0.273,22.812
		c0,4.789,0,9.27-0.102,13.358c-0.102,2.976-0.045,5.836,0,8.833l0.028,2.523c0.045,6.05,0.102,16.109,1.329,20.764
		c1.11,4.35,7.017,10.896,13.261,10.896c7.768-0.04,15.175-4.777,16.403-8.854c1.02-3.584,1.516-21.638,1.718-29.057
		C204.426,139.361,204.483,138.37,204.483,137.789 M189.899,61.331c24.25,0,36.666,19.894,36.666,39.026
		c0,17.392-0.028,22.752-0.24,39.421c-0.101,8.669-0.191,16.155-0.191,19.896c0,10.055-6.033,23.795-23.081,29.303
		c-4.256,1.369-9.179,2.097-14.176,2.097c-8.658,0-16.938-2.073-23.389-5.853c-10.582-6.168-15.806-17.693-15.806-35.259v-40.124
		c0-17.212,2.366-26.746,8.838-34.762C161.612,71.178,168.462,61.331,189.899,61.331 M527.422,148.689
		c3.595-9.283,5.374-24.188,5.374-32.669c0-10.267-2.066-19.409-3.237-23.085c-1.24-3.915-2.435-10.917-8.996-14.888
		c-2.671-1.589-8.996-2.659-14.141-2.659c-3.521,0-5.548,0-6.788,0l-0.518,0.507v77.842c0,4.377,0.225,7.008,2.918,7.496
		c3.763,0.688,7.835,0.941,11.367,0.941h2.631C521.266,162.175,525.833,152.733,527.422,148.689 M549.814,91.323
		c7.723,25.573,3.679,51.114-3.357,64.949c-6.63,13.059-20.695,21.587-30.047,20.909c-14.871-1.059-32.75-2.805-50.923-4.461
		c-0.777-3.076-1.78-10.714-0.124-12.562c2.31-2.559,12.371-4.743,12.5-4.767l0.209-0.072V81.853c0,0-4.012,0.558-7.752,0.746
		c-2.557,0.142-4.619-1.32-6.162-3.495c-4.653-6.495-2.738-14.164,0.552-16.604c6.613-4.92,11.471,2.363,18.837,1.789
		c3.396-0.237,6.196-2.985,9.356-2.985c11.271,0,23.643,0.558,28.61,2.126C540.288,69.244,548.011,85.447,549.814,91.323"/>
</g>
</svg>
